PathFileType  4	(X/Y/Z) C:\Users\hpl\Documents\MyRepositories\mocap-processing\Data\treadmill\Subject1\Edited\
DataRate	CameraRate	NumFrames	NumMarkers	Units	OrigDataRate	OrigDataStartFrame	OrigNumFrames
   50.0		   50.0		   9		     34		 mm	   50.0	      1968	   3148
Frame#	Time	r_knee			r_shank(antsup)			r_ankle			r_calc			r_5meta			r_toe			L_knee			L_shank(ant_sup)			L_ankle			L_calc			L_5meta			L_toe			r_sh2			r_sh3			r_sh4			L_sh2			L_sh3			r_thigh1			r_thigh2			r_thigh3			r_thigh4			r_thigh5			L_thigh1			L_thigh2			L_thigh3			L_thigh4			r.ASIS			r.PSIS			L.ASIS			L.PSIS			C7			R_Shoulder			L_Shoulder			Sternum			
		X1	Y1	Z1	X2	Y2	Z2	X3	Y3	Z3	X4	Y4	Z4	X5	Y5	Z5	X6	Y6	Z6	X7	Y7	Z7	X8	Y8	Z8	X9	Y9	Z9	X10	Y10	Z10	X11	Y11	Z11	X12	Y12	Z12	X13	Y13	Z13	X14	Y14	Z14	X15	Y15	Z15	X16	Y16	Z16	X17	Y17	Z17	X18	Y18	Z18	X19	Y19	Z19	X20	Y20	Z20	X21	Y21	Z21	X22	Y22	Z22	X23	Y23	Z23	X24	Y24	Z24	X25	Y25	Z25	X26	Y26	Z26	X27	Y27	Z27	X28	Y28	Z28	X29	Y29	Z29	X30	Y30	Z30	X31	Y31	Z31	X32	Y32	Z32	X33	Y33	Z33	X34	Y34	Z34	

1968	39.34000	972.229	563.332	-411.571	1018.613	487.601	-404.460	1139.837	118.417	-436.153	1083.070	52.647	-495.129	1273.418	95.641	-414.986	1290.084	155.715	-468.073	703.481	555.656	-700.783	695.366	430.465	-694.529	516.795	122.658	-674.205	429.489	91.379	-629.058	668.085	67.957	-640.312	625.023	40.991	-700.789	1062.604	376.041	-406.998	949.335	458.683	-414.321	983.022	347.295	-415.266	615.334	472.317	-712.866	570.267	358.240	-707.153	904.728	880.776	-376.235	947.593	775.708	-374.981	916.354	725.558	-368.598	802.475	832.531	-385.697	856.564	728.755	-396.462	850.789	802.737	-732.405	825.834	667.338	-718.480	734.614	823.021	-749.092	715.406	688.493	-723.805	892.863	1062.786	-437.247	704.379	1078.966	-522.075	904.098	1063.421	-692.264	713.077	1082.078	-603.970	805.302	1573.258	-578.151	845.015	1536.680	-407.961	882.220	1529.310	-752.568	944.853	1489.919	-563.656
1969	39.36000	980.894	562.240	-410.447	1023.061	484.066	-406.728	1128.064	112.928	-440.108	1065.112	54.703	-497.339	1258.219	82.955	-422.558	1278.716	141.323	-476.405	707.851	551.297	-698.963	694.601	426.406	-693.213	497.326	128.918	-675.548	408.929	102.431	-630.454	646.044	65.550	-640.823	600.803	40.864	-700.962	1061.212	370.352	-410.904	952.296	458.589	-412.861	980.676	345.850	-415.005	616.563	471.927	-712.533	565.017	361.124	-707.247	911.306	883.005	-371.826	958.185	779.955	-373.756	928.358	728.167	-367.187	810.927	831.284	-381.306	867.634	729.300	-392.645	855.011	798.841	-728.837	831.082	663.091	-713.529	739.153	818.607	-747.414	720.097	684.420	-721.961	895.224	1062.811	-433.655	707.171	1075.247	-522.093	908.132	1058.965	-688.603	716.200	1077.488	-603.912	807.284	1570.197	-575.374	846.592	1532.767	-404.842	885.258	1526.031	-749.632	947.090	1486.607	-560.143
1970	39.38000	979.589	561.948	-408.760	1025.211	483.811	-406.984	1118.102	110.736	-442.043	1047.789	58.730	-497.879	1243.826	71.016	-428.239	1268.782	126.325	-483.125	717.202	547.346	-697.334	697.105	422.463	-692.600	480.620	138.720	-676.487	391.610	118.620	-630.928	624.275	61.859	-641.547	576.981	41.308	-700.951	1062.329	369.704	-412.406	954.087	458.601	-409.949	981.837	345.673	-413.144	621.826	472.811	-711.283	563.740	365.561	-706.211	918.751	884.080	-369.569	966.137	781.184	-373.423	934.842	729.095	-368.520	817.839	832.990	-375.943	873.046	730.822	-390.177	861.744	796.881	-725.042	839.966	660.875	-709.588	745.675	814.755	-744.211	728.732	680.345	-718.663	898.167	1063.988	-430.331	710.154	1073.568	-521.430	912.209	1056.368	-684.703	719.533	1074.454	-603.437	809.556	1569.268	-572.264	847.909	1530.512	-401.470	888.758	1524.585	-746.545	949.506	1485.167	-556.508
1971	39.40000	979.059	564.237	-406.114	1026.886	484.601	-405.691	1102.218	108.653	-440.863	1027.511	61.399	-497.612	1224.296	58.671	-428.078	1253.269	112.283	-482.618	732.068	543.764	-696.841	704.155	419.468	-693.339	468.583	152.582	-677.086	379.979	141.745	-630.266	604.114	58.626	-641.791	554.573	42.669	-700.259	1060.733	369.525	-412.097	954.980	461.320	-407.248	979.324	347.737	-410.606	634.118	475.930	-710.187	567.668	372.861	-704.245	924.441	884.581	-369.545	968.587	780.563	-373.539	935.720	729.083	-368.811	821.864	836.484	-373.315	873.591	732.723	-388.804	872.253	796.850	-720.667	853.685	660.134	-706.286	754.733	811.347	-740.073	742.427	676.344	-714.976	900.880	1066.906	-427.314	712.816	1074.362	-518.976	914.598	1056.026	-681.408	722.709	1073.738	-601.338	812.009	1570.241	-568.916	849.440	1530.377	-398.011	891.764	1525.435	-743.269	951.685	1486.158	-553.038
1972	39.42000	985.633	567.387	-403.869	1024.964	484.467	-402.888	1082.333	105.882	-439.411	1005.758	63.590	-496.867	1202.261	49.003	-427.083	1234.708	101.416	-480.587	757.540	539.815	-696.817	719.586	418.296	-695.731	465.839	170.716	-677.631	378.185	171.852	-628.637	585.996	57.167	-640.249	534.316	46.557	-699.122	1052.921	367.986	-409.371	952.088	464.798	-404.924	970.755	350.268	-408.832	653.475	480.156	-708.696	580.148	382.097	-702.845	925.639	886.726	-369.224	968.070	781.848	-372.509	935.639	731.069	-366.959	822.250	839.562	-370.469	873.521	735.345	-386.519	884.525	798.212	-716.569	873.085	660.515	-703.824	767.254	807.450	-736.034	761.126	671.844	-713.324	902.684	1070.543	-424.416	714.686	1076.312	-516.013	917.205	1058.966	-677.935	725.015	1075.135	-598.022	813.786	1572.308	-565.411	851.635	1532.209	-394.750	893.487	1528.205	-739.839	953.491	1488.611	-550.119
1973	39.44000	986.667	569.467	-400.704	1019.631	485.016	-399.496	1062.115	104.395	-439.159	983.208	65.425	-496.183	1180.155	42.986	-426.648	1214.411	93.604	-481.277	787.812	535.642	-699.390	741.865	418.350	-698.719	472.425	189.934	-678.841	388.500	206.084	-627.266	569.933	57.562	-640.077	517.620	53.011	-698.352	1043.101	367.630	-406.334	945.521	468.175	-400.678	960.270	352.878	-405.459	680.159	484.663	-708.767	600.277	391.979	-702.309	924.902	892.087	-366.061	970.493	787.779	-370.515	938.505	737.381	-365.147	822.245	842.664	-366.897	875.594	738.977	-381.805	899.524	800.162	-713.474	896.554	661.926	-703.391	782.466	802.887	-733.688	784.069	666.854	-713.975	903.362	1074.272	-421.657	715.573	1079.778	-512.876	919.515	1063.116	-674.702	726.760	1077.860	-594.801	815.019	1575.177	-561.763	854.322	1535.253	-391.676	893.930	1531.883	-736.702	954.814	1491.790	-547.528
1974	39.46000	980.349	571.929	-397.483	1013.601	485.231	-396.569	1040.292	104.476	-439.553	959.300	66.685	-495.998	1157.443	40.829	-426.949	1192.557	88.538	-483.186	818.372	532.466	-699.980	768.451	418.828	-700.277	487.281	209.430	-680.553	409.190	243.271	-629.054	559.116	62.914	-640.279	506.419	66.318	-698.108	1033.264	367.188	-404.927	938.877	470.536	-396.292	949.735	355.174	-401.991	710.880	488.751	-707.705	625.036	400.964	-701.308	925.201	897.175	-363.796	970.550	792.766	-367.373	939.320	742.543	-361.251	822.523	846.759	-362.389	875.911	743.241	-376.629	914.305	801.987	-712.828	920.630	663.888	-705.634	796.869	797.289	-731.476	807.746	661.370	-715.335	903.517	1077.964	-419.144	716.324	1083.698	-511.374	920.310	1066.526	-671.935	727.822	1081.017	-592.729	815.513	1577.802	-558.208	857.267	1538.500	-388.852	893.249	1535.504	-733.450	955.337	1494.789	-545.299
1975	39.48000	970.833	572.085	-395.053	1005.060	485.026	-395.355	1017.492	104.464	-440.657	935.108	67.314	-496.003	1134.052	39.670	-427.132	1169.472	84.866	-484.642	847.116	529.865	-700.861	796.321	420.624	-700.612	504.463	229.150	-681.956	434.101	275.937	-630.872	555.825	74.888	-639.338	504.197	85.568	-697.072	1021.079	366.506	-404.403	930.035	472.688	-394.441	937.299	357.081	-401.216	742.133	493.046	-708.317	652.493	409.636	-701.288	924.567	899.289	-360.985	968.159	793.514	-363.850	934.926	744.101	-359.146	821.125	851.181	-358.982	872.349	746.209	-375.419	926.308	804.087	-714.863	942.317	666.594	-708.908	809.052	791.737	-729.055	829.458	656.164	-715.336	903.385	1081.731	-417.061	716.583	1086.853	-510.539	920.191	1068.409	-669.700	727.983	1082.845	-592.016	815.145	1580.224	-554.789	859.859	1541.234	-386.397	891.418	1538.413	-730.553	955.305	1497.101	-543.371
1976	39.50000	960.155	571.333	-393.831	992.891	484.111	-394.752	994.240	104.613	-441.660	910.399	67.603	-496.466	1110.102	39.515	-427.274	1145.732	82.553	-486.115	875.744	531.322	-701.375	824.277	425.291	-699.780	524.345	247.655	-682.752	453.366	297.594	-636.333	569.026	92.685	-634.146	520.991	103.340	-695.037	1005.679	365.421	-403.798	917.455	474.224	-394.627	921.606	358.272	-401.682	774.062	499.914	-710.406	680.574	420.897	-703.115	922.719	899.297	-358.890	962.975	792.096	-361.538	927.068	743.571	-358.785	817.578	855.046	-357.739	864.369	748.527	-371.876	934.880	808.075	-717.395	960.146	672.068	-712.473	818.310	788.510	-725.561	848.084	654.753	-713.411	903.018	1084.713	-415.250	716.198	1088.838	-509.961	919.415	1069.024	-668.042	727.273	1083.189	-591.565	814.498	1582.535	-551.818	861.860	1543.260	-384.004	888.830	1540.404	-728.377	954.755	1499.168	-542.009
